<svg id="Layer_1" xmlns="http://www.w3.org/2000/svg" xmlns:xlink="http://www.w3.org/1999/xlink" viewBox="0 0 941.6 467.1"><style>.st0{fill:#0072ce}.st0,.st1{clip-path:url(#SVGID_2_)}.st2{clip-path:url(#SVGID_4_);fill:#231f20}.st3{fill:#fff}</style><defs><path id="SVGID_1_" d="M9.4 4.7h922.7v457.7H9.4z"/></defs><clipPath id="SVGID_2_"><use xlink:href="#SVGID_1_" overflow="visible"/></clipPath><path class="st0" d="M932.1 4.7L9.4 166.6l53 295.8 869.7-153.9z"/><g class="st1"><defs><path id="SVGID_3_" d="M-23.3-32.5h988.1v532H-23.3z"/></defs><clipPath id="SVGID_4_"><use xlink:href="#SVGID_3_" overflow="visible"/></clipPath><path class="st2" d="M902.7 332.5h4.8v12.8h2.2v-12.8h4.7v-1.9h-11.7zm17.1 12.8V332h.1l4 13.3h1.8l4.1-13.3h.1v13.3h2.2v-14.7h-3.9l-3.2 10.9h-.1l-3.5-10.9h-3.8v14.7z"/></g><g class="st1"><path class="st3" d="M66.5 337.2l34.4-161.8H195l-10.3 34.1h-49.4l-5.8 27.2h40.4l-7 33h-40.4l-7 32.9H171l-7.4 34.6zm137.8-163.7l42-7c.5 5.8-.9 18.1-3.5 30l-19 88.9c-4.4 21.1-4.9 26.7 4.2 26.7 1.4 0 2.8-.2 4.4-.7l1.2 25.1c-5.8 2.1-15.8 3.7-26.9 3.7-34.1 0-31.1-17.6-26-41.6l17.4-81.8c5.9-27.7 6.4-36.5 6.2-43.3"/><path class="st3" d="M347.8 254.3l-9.1 43.2c-.9 4-.7 12.3 4.6 18.1l-32.7 26.2c-4.9-2.6-8.4-9.8-9.1-14.2-5.3 5.6-17.2 13.2-31.1 13.2-24.4 0-34.6-15.3-34.6-40.9 0-25.5 10.2-52 25.8-67.6 13.7-13.7 28.3-18.1 49.5-18.1 16.5 0 36.9 2.8 45.8 7.2-3.5 8.6-7 23-9.1 32.9m-42.9-9.9c-3 0-8.8-.2-14.6 6.5-8.6 10-13.7 33.4-13.7 48.3 0 8.1 2.3 11.6 7.9 11.6 4.9 0 13.2-8.4 14.2-12.3l11.1-52.5c-1.4-1.2-3.5-1.6-4.9-1.6m134-30c30 0 33 17 29.3 34.4l-18.8 88.5H409l16.3-76.6c2.1-9.3.9-13.5-5.8-13.5-6.5 0-11.6 3.3-16.7 11.1l-17 79h-40.4l16-75.5c3.7-18.1 5.1-28.8 3.3-40.6l35.8-6.7c.9 3.9 1.9 8.1 2.1 13 9.1-8.2 23-13.1 36.3-13.1m69.4 125.9c-33.4 0-49.7-21.4-41.1-61.8 8.6-40.6 33.2-64.1 68.5-64.1 17.2 0 26.5 4.4 36.2 14.2L548.2 253c-3.5-4.9-9.5-8.8-15.1-8.8-9.3 0-16.3 7.4-21.4 31.8s-4.6 34.4 7 34.4c9.1 0 17.4-4.4 24.2-10.7l12.1 23.7c-15.6 12.7-32 16.9-46.7 16.9"/><path class="st3" d="M673.1 256.9c0 31.4-17.4 83.4-73.4 83.4-28.3 0-44.4-15.6-44.4-43.2 0-30.9 16.7-82.7 73.4-82.7 25.1 0 44.4 12.3 44.4 42.5M597.6 301c0 7.4 2.6 10.9 9.1 10.9 16.7 0 23.7-50.4 23.7-58.5 0-8.1-3-10.9-9.1-10.9-16.7 0-23.7 50.2-23.7 58.5"/></g></svg>